<svg width="20" height="20" viewBox="0 0 14 16" fill="none" xmlns="http://www.w3.org/2000/svg">
<path d="M1.82841 8.4853L7.48526 2.82845C8.65683 1.65688 10.5563 1.65688 11.7279 2.82845C12.8995 4.00002 12.8995 5.89952 11.7279 7.07109L5.01039 13.7886C4.4246 14.3744 3.47485 14.3744 2.88907 13.7886C2.30328 13.2028 2.30328 12.2531 2.88907 11.6673L8.89948 5.65687C9.09474 5.46161 9.09474 5.14503 8.89948 4.94977C8.70421 4.75451 8.38763 4.75451 8.19237 4.94977L2.18196 10.9602C1.20565 11.9365 1.20565 13.5194 2.18196 14.4957C3.15827 15.472 4.74118 15.472 5.71749 14.4957L12.435 7.77819C13.9971 6.2161 13.9971 3.68344 12.435 2.12134C10.8729 0.559244 8.34025 0.559244 6.77815 2.12134L1.1213 7.77819C0.926038 7.97346 0.926038 8.29004 1.1213 8.4853C1.31656 8.68056 1.63315 8.68056 1.82841 8.4853Z" fill="#605E5C"/>
</svg>
